solid OpenSCAD_Model
  facet normal 1 0 0
    outer loop
      vertex 21.6506 25 0
      vertex 21.6506 25 8
      vertex 21.6506 -25 8
    endloop
  endfacet
  facet normal 1 0 0
    outer loop
      vertex 21.6506 -25 0
      vertex 21.6506 25 0
      vertex 21.6506 -25 8
    endloop
  endfacet
  facet normal -6.12303e-17 0 -1
    outer loop
      vertex 2.93906e-16 -10 1.32568e-15
      vertex 21.6506 -25 0
      vertex -21.6506 0 2.65135e-15
    endloop
  endfacet
  facet normal -6.12303e-17 0 -1
    outer loop
      vertex 21.6506 25 0
      vertex 21.6506 -25 0
      vertex 17.3205 0 2.65135e-16
    endloop
  endfacet
  facet normal -6.12303e-17 6.62471e-33 -1
    outer loop
      vertex 21.6506 25 0
      vertex 17.3205 0 2.65135e-16
      vertex 2.93906e-16 10 1.32568e-15
    endloop
  endfacet
  facet normal -6.12303e-17 0 -1
    outer loop
      vertex 21.6506 25 0
      vertex 2.93906e-16 10 1.32568e-15
      vertex -21.6506 0 2.65135e-15
    endloop
  endfacet
  facet normal -6.12303e-17 -6.62471e-33 -1
    outer loop
      vertex 17.3205 0 2.65135e-16
      vertex 21.6506 -25 0
      vertex 2.93906e-16 -10 1.32568e-15
    endloop
  endfacet
  facet normal -6.12303e-17 -0 -1
    outer loop
      vertex 2.93906e-16 -10 1.32568e-15
      vertex -21.6506 0 2.65135e-15
      vertex 2.93906e-16 10 1.32568e-15
    endloop
  endfacet
  facet normal -0.5 -0.866025 2.59174e-16
    outer loop
      vertex -14.231 -4.2837 2.78648
      vertex -21.6506 0 8
      vertex -21.6506 0 2.65135e-15
    endloop
  endfacet
  facet normal -0.5 -0.866025 -0
    outer loop
      vertex 21.6506 -25 0
      vertex 21.6506 -25 8
      vertex -21.6506 0 2.65135e-15
    endloop
  endfacet
  facet normal -0.5 -0.866025 -9.39262e-16
    outer loop
      vertex -12.4677 -5.30178 2.78648
      vertex -14.231 -4.2837 2.78648
      vertex -21.6506 0 2.65135e-15
    endloop
  endfacet
  facet normal -0.5 -0.866025 7.2095e-16
    outer loop
      vertex -14.7759 -3.9691 4.46353
      vertex -21.6506 0 8
      vertex -14.231 -4.2837 2.78648
    endloop
  endfacet
  facet normal -0.5 -0.866025 -3.16003e-16
    outer loop
      vertex -13.3494 -4.79274 5.5
      vertex -21.6506 0 8
      vertex -14.7759 -3.9691 4.46353
    endloop
  endfacet
  facet normal -0.5 -0.866025 -3.11198e-16
    outer loop
      vertex -11.9228 -5.61638 4.46353
      vertex -12.4677 -5.30178 2.78648
      vertex 21.6506 -25 8
    endloop
  endfacet
  facet normal -0.5 -0.866025 9.09495e-16
    outer loop
      vertex 21.6506 -25 8
      vertex -21.6506 0 8
      vertex -13.3494 -4.79274 5.5
    endloop
  endfacet
  facet normal -0.5 -0.866025 2.08618e-15
    outer loop
      vertex 21.6506 -25 8
      vertex -12.4677 -5.30178 2.78648
      vertex -21.6506 0 2.65135e-15
    endloop
  endfacet
  facet normal -0.5 -0.866025 2.31664e-16
    outer loop
      vertex -13.3494 -4.79274 5.5
      vertex -11.9228 -5.61638 4.46353
      vertex 21.6506 -25 8
    endloop
  endfacet
  facet normal -0.5 0.866025 0
    outer loop
      vertex 21.6506 25 8
      vertex 21.6506 25 0
      vertex -21.6506 0 8
    endloop
  endfacet
  facet normal -0.5 0.866025 2.03998e-16
    outer loop
      vertex -12.4677 5.30178 2.78648
      vertex 21.6506 25 0
      vertex -21.6506 0 2.65135e-15
    endloop
  endfacet
  facet normal -0.5 0.866025 1.57146e-16
    outer loop
      vertex -11.9228 5.61638 4.46353
      vertex 21.6506 25 0
      vertex -12.4677 5.30178 2.78648
    endloop
  endfacet
  facet normal -0.5 0.866025 6.26175e-16
    outer loop
      vertex -14.231 4.2837 2.78648
      vertex -12.4677 5.30178 2.78648
      vertex -21.6506 0 2.65135e-15
    endloop
  endfacet
  facet normal -0.5 0.866025 -7.5754e-16
    outer loop
      vertex -13.3494 4.79274 5.5
      vertex 21.6506 25 0
      vertex -11.9228 5.61638 4.46353
    endloop
  endfacet
  facet normal -0.5 0.866025 5.88244e-16
    outer loop
      vertex -21.6506 0 8
      vertex 21.6506 25 0
      vertex -13.3494 4.79274 5.5
    endloop
  endfacet
  facet normal -0.5 0.866025 -2.00264e-16
    outer loop
      vertex -14.231 4.2837 2.78648
      vertex -21.6506 0 8
      vertex -14.7759 3.9691 4.46353
    endloop
  endfacet
  facet normal -0.5 0.866025 2.22045e-16
    outer loop
      vertex -21.6506 0 8
      vertex -14.231 4.2837 2.78648
      vertex -21.6506 0 2.65135e-15
    endloop
  endfacet
  facet normal -0.5 0.866025 -6.32007e-17
    outer loop
      vertex -14.7759 3.9691 4.46353
      vertex -21.6506 0 8
      vertex -13.3494 4.79274 5.5
    endloop
  endfacet
  facet normal 2.46139e-16 3.55271e-16 1
    outer loop
      vertex 5.87811e-16 -10 8
      vertex -21.6506 0 8
      vertex 21.6506 -25 8
    endloop
  endfacet
  facet normal 8.20464e-17 -0 1
    outer loop
      vertex 5.87811e-16 10 8
      vertex -21.6506 0 8
      vertex 5.87811e-16 -10 8
    endloop
  endfacet
  facet normal 0 -0 1
    outer loop
      vertex 17.3205 0 8
      vertex 5.87811e-16 -10 8
      vertex 21.6506 -25 8
    endloop
  endfacet
  facet normal 2.46139e-16 -3.55271e-16 1
    outer loop
      vertex 21.6506 25 8
      vertex -21.6506 0 8
      vertex 5.87811e-16 10 8
    endloop
  endfacet
  facet normal 0 0 1
    outer loop
      vertex 21.6506 25 8
      vertex 17.3205 0 8
      vertex 21.6506 -25 8
    endloop
  endfacet
  facet normal 0 0 1
    outer loop
      vertex 5.87811e-16 10 8
      vertex 17.3205 0 8
      vertex 21.6506 25 8
    endloop
  endfacet
  facet normal -0.5 -0.866025 0
    outer loop
      vertex 2.93906e-16 10 1.32568e-15
      vertex 17.3205 0 2.65135e-16
      vertex 17.3205 0 8
    endloop
  endfacet
  facet normal -0.5 -0.866025 1.83691e-17
    outer loop
      vertex 5.87811e-16 10 8
      vertex 2.93906e-16 10 1.32568e-15
      vertex 17.3205 0 8
    endloop
  endfacet
  facet normal -0.5 0.866025 1.83691e-17
    outer loop
      vertex 2.93906e-16 -10 1.32568e-15
      vertex 5.87811e-16 -10 8
      vertex 17.3205 0 2.65135e-16
    endloop
  endfacet
  facet normal -0.5 0.866025 0
    outer loop
      vertex 17.3205 0 2.65135e-16
      vertex 5.87811e-16 -10 8
      vertex 17.3205 0 8
    endloop
  endfacet
  facet normal 1 0 -3.67382e-17
    outer loop
      vertex 5.87811e-16 -10 8
      vertex 2.93906e-16 -10 1.32568e-15
      vertex 2.93906e-16 10 1.32568e-15
    endloop
  endfacet
  facet normal 1 0 -3.67382e-17
    outer loop
      vertex 5.87811e-16 10 8
      vertex 5.87811e-16 -10 8
      vertex 2.93906e-16 10 1.32568e-15
    endloop
  endfacet
  facet normal 0.951056 0 0.309017
    outer loop
      vertex -14.231 4.2837 2.78648
      vertex -14.7759 3.9691 4.46353
      vertex -14.7759 -3.9691 4.46353
    endloop
  endfacet
  facet normal 0.951056 -1.97191e-16 0.309017
    outer loop
      vertex -14.231 -4.2837 2.78648
      vertex -14.231 4.2837 2.78648
      vertex -14.7759 -3.9691 4.46353
    endloop
  endfacet
  facet normal 0 0 1
    outer loop
      vertex -12.4677 5.30178 2.78648
      vertex -14.231 4.2837 2.78648
      vertex -14.231 -4.2837 2.78648
    endloop
  endfacet
  facet normal 0 0 1
    outer loop
      vertex -12.4677 -5.30178 2.78648
      vertex -12.4677 5.30178 2.78648
      vertex -14.231 -4.2837 2.78648
    endloop
  endfacet
  facet normal -0.951056 1.50401e-16 0.309017
    outer loop
      vertex -11.9228 5.61638 4.46353
      vertex -12.4677 5.30178 2.78648
      vertex -11.9228 -5.61638 4.46353
    endloop
  endfacet
  facet normal -0.951056 1.60318e-16 0.309017
    outer loop
      vertex -11.9228 -5.61638 4.46353
      vertex -12.4677 5.30178 2.78648
      vertex -12.4677 -5.30178 2.78648
    endloop
  endfacet
  facet normal -0.587785 0 -0.809017
    outer loop
      vertex -13.3494 4.79274 5.5
      vertex -11.9228 5.61638 4.46353
      vertex -13.3494 -4.79274 5.5
    endloop
  endfacet
  facet normal -0.587785 8.96817e-17 -0.809017
    outer loop
      vertex -13.3494 -4.79274 5.5
      vertex -11.9228 5.61638 4.46353
      vertex -11.9228 -5.61638 4.46353
    endloop
  endfacet
  facet normal 0.587785 0 -0.809017
    outer loop
      vertex -13.3494 4.79274 5.5
      vertex -13.3494 -4.79274 5.5
      vertex -14.7759 3.9691 4.46353
    endloop
  endfacet
  facet normal 0.587785 0 -0.809017
    outer loop
      vertex -14.7759 3.9691 4.46353
      vertex -13.3494 -4.79274 5.5
      vertex -14.7759 -3.9691 4.46353
    endloop
  endfacet
endsolid OpenSCAD_Model
